<svg width="86" height="87" viewBox="0 0 86 87" fill="none" xmlns="http://www.w3.org/2000/svg">
<path d="M67.9638 48.3466C71.0933 48.6233 73.9217 49.4921 76.5219 51.0564C83.4737 55.2374 87.1792 63.3564 85.6638 71.0798C84.0446 79.3358 77.7103 85.5258 69.4922 86.7592C67.7925 87.0152 66.0435 86.9893 64.3179 86.9893C44.0826 87.0048 23.8474 86.9996 3.61214 86.9971C1.16772 86.9971 0 85.8387 0 83.403C0 56.8069 0 30.2082 0 3.61216C0 1.1713 1.16512 0.0129291 3.60695 0.0129291C20.6738 0.0129291 37.7432 0.0180996 54.8101 0C56.0427 0 57.0002 0.395608 57.8591 1.26439C60.8018 4.24307 63.7704 7.19589 66.7545 10.1306C67.6031 10.9658 67.9794 11.9095 67.9768 13.0989C67.956 24.4681 67.9638 35.8372 67.9638 47.209V48.3441V48.3466ZM56.4086 84.1942C56.0115 83.9098 55.7884 83.7883 55.6119 83.6176C54.0705 82.1515 52.4928 80.7191 51.0267 79.1806C50.557 78.6868 50.1626 78.4515 49.4879 78.4515C36.5548 78.4696 23.6216 78.4644 10.6885 78.4644C10.3382 78.4644 9.98269 78.4747 9.63497 78.4333C8.88763 78.348 8.46206 77.8878 8.41795 77.1612C8.37384 76.3933 8.76307 75.8684 9.54155 75.721C9.91263 75.6512 10.2993 75.6589 10.6781 75.6589C22.9963 75.6564 35.3144 75.6589 47.6299 75.6589H48.7691C48.3773 74.379 47.9491 73.231 47.687 72.0442C47.5183 71.2788 47.2407 71.0384 46.4285 71.041C34.4918 71.072 22.5551 71.0616 10.6185 71.0616C10.2967 71.0616 9.96972 71.0797 9.65054 71.0435C8.90839 70.9582 8.47504 70.5135 8.41535 69.7869C8.35567 69.0578 8.71637 68.5355 9.43257 68.3493C9.79326 68.2536 10.1877 68.264 10.564 68.2614C22.3839 68.2562 34.2012 68.2588 46.0211 68.2588H47.0668C47.2044 66.6505 47.3289 65.2025 47.4613 63.677H46.4544C34.4892 63.677 22.524 63.677 10.5562 63.677C10.2344 63.677 9.90225 63.7106 9.59086 63.6511C8.87466 63.5167 8.45428 63.0642 8.40238 62.3299C8.35308 61.6343 8.85649 61.0189 9.5701 60.9026C9.88408 60.8509 10.2136 60.8742 10.5354 60.8742C22.7939 60.8742 35.0523 60.8742 47.3133 60.8742H48.2527C49.0935 59.3072 49.8849 57.8308 50.7101 56.2924H49.5891C41.2905 56.2924 32.9893 56.2924 24.6908 56.2924C19.8227 56.2924 14.9546 56.2975 10.0865 56.2898C9.04592 56.2898 8.41535 55.7494 8.40238 54.9039C8.38941 54.048 9.01219 53.5154 10.045 53.4973C10.2785 53.4947 10.5147 53.4973 10.7482 53.4973C24.5896 53.4973 38.4335 53.4921 52.2748 53.5076C52.9859 53.5076 53.5334 53.3499 54.0913 52.869C56.6525 50.666 59.6315 49.293 62.9452 48.6466C63.6536 48.507 64.3776 48.4346 65.0938 48.3311V13.342C62.408 13.342 59.7742 13.3498 57.1403 13.3394C55.4822 13.3317 54.5973 12.4448 54.5895 10.7874C54.5791 8.44993 54.5895 6.10991 54.5869 3.77248C54.5869 3.46478 54.5869 3.15968 54.5869 2.82095C54.2755 2.82095 54.1017 2.82095 53.9252 2.82095C37.1801 2.82095 20.4325 2.82871 3.68739 2.80027C2.78436 2.80027 2.79733 3.22949 2.79733 3.87073C2.80512 30.2936 2.80771 56.7164 2.78695 83.1393C2.78695 83.9744 3.00752 84.2149 3.85866 84.2123C21.0163 84.189 38.1714 84.1942 55.3291 84.1942H56.4034H56.4086ZM83.1389 67.6718C83.1519 58.5341 75.7096 51.0952 66.5547 51.0952C57.4362 51.0952 50.0147 58.4772 49.9757 67.5865C49.9368 76.7268 57.3557 84.1787 66.5132 84.1942C75.6889 84.2097 83.1285 76.8173 83.1389 67.6718ZM62.7635 10.4926C60.9938 8.72143 59.1955 6.91922 57.4673 5.18942V10.4926H62.7635Z" fill="white"/>
<path d="M37.9713 30.1319C38.9393 32.3749 39.866 34.5381 40.8056 36.6962C41.0844 37.3349 41.2961 37.9787 40.8134 38.589C40.3332 39.1942 39.6879 39.1813 38.9806 39.0114C37.9919 38.7693 36.9748 38.638 35.9862 38.3907C35.5293 38.2748 35.3021 38.3856 35.075 38.7744C34.5174 39.7273 33.9779 40.7059 33.3041 41.5763C32.9892 41.9806 32.3593 42.4081 31.9102 42.3695C31.461 42.3309 30.8905 41.8055 30.6711 41.3497C29.8038 39.5444 29.0423 37.6851 28.2601 35.8386C27.8135 34.7854 26.8145 34.9167 25.973 34.7673C25.2425 34.6386 24.8475 35.0686 24.5455 35.7485C23.4949 38.1126 22.3642 40.4406 21.2826 42.7893C20.9858 43.4357 20.6167 43.9816 19.8397 43.9996C19.104 44.0151 18.7064 43.5155 18.376 42.9258C17.9088 42.0862 17.3564 41.2905 16.9459 40.4278C16.6517 39.8097 16.2567 39.7608 15.6888 39.8741C14.6898 40.0724 13.6857 40.3119 12.6763 40.3737C12.1652 40.4046 11.4321 40.2269 11.1636 39.8689C10.8952 39.511 10.8926 38.7358 11.0914 38.28C12.2298 35.6712 13.4637 33.1063 14.7001 30.4435C14.3826 30.2915 14.1013 30.1653 13.825 30.0237C12.1368 29.1636 11.2075 27.4433 11.4063 25.5582C11.445 25.1822 11.4347 24.7933 11.5276 24.4302C11.8322 23.2224 11.4786 22.1743 10.9546 21.0849C10.5002 20.1372 10.113 19.0891 10.0149 18.0539C9.89361 16.7534 10.5209 15.5919 11.5612 14.7833C12.968 13.6914 13.7218 12.3136 14.0625 10.5624C14.5478 8.08502 16.0528 6.87464 18.6032 6.81799C20.2785 6.77936 21.6776 6.30293 22.9915 5.2239C24.9714 3.59633 26.972 3.5886 28.9519 5.22132C30.2917 6.32611 31.7217 6.78708 33.4254 6.82056C35.87 6.86692 37.4395 8.16485 37.8861 10.5598C38.201 12.2441 38.9367 13.5472 40.2403 14.6751C42.1815 16.3542 42.5067 18.2959 41.2651 20.5441C40.4674 21.9889 40.1628 23.4053 40.47 25.0457C40.8831 27.2553 40.0209 28.973 37.9661 30.1293L37.9713 30.1319ZM14.1787 25.9754C14.14 26.7866 14.4936 27.3712 15.5881 27.7317C17.7178 28.4373 19.264 29.7533 20.3508 31.7053C21.0142 32.8977 21.6131 33.114 22.9038 32.6196C24.9663 31.829 26.9617 31.8212 29.0268 32.6118C30.3562 33.1217 30.9267 32.908 31.634 31.6487C32.6975 29.7559 34.1973 28.4785 36.2572 27.7652C37.6383 27.2862 37.9635 26.7789 37.695 25.3831C37.2614 23.1477 37.6615 21.139 38.8257 19.2024C39.4452 18.1697 39.3291 17.4899 38.3894 16.7431C36.5928 15.3112 35.537 13.5162 35.1885 11.2397C34.9949 9.97784 34.5045 9.59155 33.2189 9.60185C30.9628 9.6173 29.0087 8.96318 27.2973 7.45665C26.2931 6.57334 25.6555 6.57591 24.6643 7.44893C22.9554 8.9503 21.0064 9.62245 18.7477 9.60185C17.4261 9.59155 16.9614 9.99329 16.7497 11.3144C16.4013 13.4853 15.4229 15.2262 13.7037 16.6194C12.5679 17.5414 12.4827 18.0976 13.2029 19.3466C14.2458 21.1545 14.7621 23.0267 14.2845 25.1049C14.2252 25.3573 14.2226 25.6251 14.1839 25.9728L14.1787 25.9754ZM17.1266 31.8908C16.2644 33.7398 15.4745 35.4317 14.6408 37.2241C15.4797 37.0876 16.1896 36.9743 16.902 36.8559C17.6532 36.7323 18.1979 37.0078 18.5696 37.6697C18.9026 38.2645 19.2588 38.8491 19.6874 39.5779C20.3327 38.1976 20.9109 36.9589 21.5459 35.6017C19.2305 35.3751 18.2263 33.7115 17.1292 31.8882L17.1266 31.8908ZM35.3899 31.2263C34.0347 32.7766 33.428 34.9218 31.1461 35.4704C31.5281 36.3485 31.8611 37.1134 32.2535 38.0199C32.6872 37.3271 33.0408 36.7992 33.3558 36.2507C33.8049 35.4652 34.4219 35.1639 35.3253 35.406C35.9475 35.5734 36.5902 35.6532 37.3595 35.7974C36.6754 34.2111 36.0559 32.7766 35.3873 31.2289L35.3899 31.2263Z" fill="white"/>
<path d="M33.565 46.0047C41.3446 46.0047 49.1241 46.0047 56.9037 46.0047C58.3608 46.0047 58.9974 46.4605 59 47.4909C59 48.5269 58.3504 48.9993 56.9115 48.9993C41.2954 48.9993 25.6767 48.9993 10.0607 48.9993C9.7967 48.9993 9.53272 49.0075 9.27392 48.9689C8.4794 48.8446 7.97992 48.2368 8.00062 47.4495C8.02132 46.665 8.55187 46.0959 9.35415 46.0213C9.67247 45.9909 9.99598 46.002 10.3195 46.002C18.0706 46.002 25.8191 46.002 33.5702 46.002L33.565 46.0047Z" fill="white"/>
<path d="M63.9303 66.9991C66.6086 64.4022 69.2054 61.9044 71.7787 59.378C72.8946 58.2829 74.1839 57.7667 75.7331 58.1004C77.2718 58.4342 78.3299 59.3728 78.7921 60.8746C79.2778 62.4441 78.905 63.8521 77.7523 65.0227C75.116 67.6926 72.4614 70.3468 69.812 73.0088C68.914 73.9083 68.0265 74.8183 67.1127 75.7022C65.3403 77.4151 62.9089 77.4412 61.1444 75.7282C59.1514 73.7936 57.1768 71.8382 55.2285 69.854C53.5848 68.1802 53.6032 65.6537 55.2075 64.0554C56.8145 62.4572 59.3352 62.4415 61.0446 64.0685C62.0686 65.041 63.0296 66.0813 63.9303 66.9991ZM76.232 62.2043C76.0823 61.8419 76.0219 61.542 75.8538 61.3204C75.3287 60.6243 74.5042 60.6764 73.7243 61.4586C70.9437 64.238 68.1735 67.0277 65.3928 69.8071C64.4554 70.7431 63.7649 70.7405 62.8143 69.8071C61.6117 68.626 60.4275 67.4293 59.2223 66.2508C58.5081 65.552 57.7519 65.5051 57.1978 66.0943C56.6832 66.6419 56.7541 67.3693 57.421 68.0394C59.2827 69.8984 61.1496 71.7521 63.027 73.5955C63.8121 74.3646 64.4528 74.3568 65.2458 73.5642C68.696 70.1148 72.1384 66.6601 75.5703 63.1951C75.846 62.9187 76.014 62.538 76.2293 62.2095L76.232 62.2043Z" fill="white"/>
<path d="M16.0026 19.9719C16.0181 14.4519 20.5503 9.95148 26.0426 10.0004C31.571 10.0519 36.0206 14.5497 35.9999 20.0671C35.9793 25.5047 31.4419 30.0051 25.9884 30C20.4754 29.9923 15.9846 25.4841 16 19.9719H16.0026ZM33.2022 20.0182C33.2099 16.0404 29.945 12.7758 25.9729 12.7913C22.024 12.8067 18.8107 16.0224 18.8004 19.9744C18.7875 23.9574 22.0447 27.2194 26.0168 27.204C29.9553 27.1885 33.1918 23.9522 33.2022 20.0182Z" fill="white"/>
<path d="M24.7307 20.808C26.439 19.2744 27.9663 17.8972 29.5063 16.5275C30.2508 15.8641 30.9826 15.8313 31.5742 16.4014C32.1377 16.9437 32.1606 17.7963 31.5308 18.3739C29.616 20.1345 27.6782 21.8749 25.7225 23.5927C25.0774 24.1602 24.4196 24.1274 23.7898 23.5397C22.9739 22.7805 22.1784 21.996 21.416 21.1838C20.8449 20.5759 20.878 19.8016 21.416 19.2693C21.9515 18.7396 22.7444 18.7094 23.3513 19.2693C23.8281 19.7133 24.2309 20.2379 24.7332 20.8029L24.7307 20.808Z" fill="white"/>
</svg>
