<svg width="95" height="102" viewBox="0 0 95 102" fill="none" xmlns="http://www.w3.org/2000/svg">
<path d="M30.2807 75.0817C27.8142 72.6089 25.3944 70.183 22.9114 67.6937C23.9657 66.1352 25.0311 64.5023 26.1652 62.9189C26.5864 62.3324 26.5864 61.8863 26.2506 61.2612C25.7688 60.358 25.3449 59.4025 25.0613 58.4222C24.8356 57.6402 24.4392 57.3373 23.6684 57.2189C22.0773 56.9766 20.5054 56.5993 18.9143 56.3487C18.2453 56.2441 17.9893 56.0073 18.0003 55.3024C18.0361 52.4165 18.0361 49.5307 18.0003 46.6477C17.9921 45.9565 18.2206 45.7032 18.9033 45.593C20.6293 45.3149 22.3471 44.9762 24.0511 44.588C24.3924 44.5109 24.7806 44.1501 24.9375 43.8224C25.4688 42.7127 25.945 41.57 26.3552 40.4079C26.4763 40.0637 26.4433 39.5323 26.2506 39.2349C25.1632 37.5331 24.0098 35.8782 22.9169 34.2618C25.3999 31.778 27.8252 29.3548 30.3 26.8821C31.8884 27.9588 33.5428 29.0547 35.1697 30.192C35.6405 30.5224 36.0094 30.5967 36.5599 30.3186C37.5977 29.7982 38.6769 29.3411 39.778 28.9721C40.3561 28.7766 40.5791 28.504 40.6782 27.9147C40.9645 26.1882 41.2975 24.4699 41.6802 22.7654C41.7463 22.4735 42.1427 22.0384 42.3904 22.0357C45.614 21.9861 48.8403 22.0026 52.174 22.0026C52.5181 23.7842 52.9255 25.5163 53.165 27.2731C53.3081 28.3222 53.7018 28.8895 54.7672 29.1621C55.7169 29.4044 56.5785 29.9772 57.5172 30.2911C57.8916 30.4178 58.4587 30.393 58.7808 30.1892C60.46 29.1263 62.0897 27.9835 63.6588 26.9179C66.1171 29.3796 68.5368 31.8001 71.0501 34.3169C70.0343 35.8204 68.947 37.4726 67.8101 39.0889C67.4522 39.5984 67.3916 39.9866 67.6834 40.5704C68.2037 41.6085 68.6359 42.699 69.0213 43.7949C69.2057 44.3236 69.4535 44.5494 70.0068 44.6403C71.7301 44.9267 73.4396 45.3094 75.1629 45.6013C75.7988 45.7087 76.0052 45.9648 75.9997 46.6119C75.9667 49.4977 75.9667 52.3835 75.9997 55.2666C76.008 55.9357 75.8263 56.2331 75.1243 56.346C73.3983 56.6213 71.6805 56.96 69.9765 57.3511C69.6324 57.4309 69.2443 57.7861 69.0874 58.1138C68.5561 59.2235 68.0798 60.3663 67.6669 61.5256C67.543 61.8725 67.5596 62.4067 67.7495 62.7041C68.8369 64.4086 69.9958 66.0663 71.1052 67.7075C68.6359 70.1692 66.2107 72.5897 63.7194 75.0734C62.164 74.0216 60.5343 72.9504 58.9432 71.8242C58.4091 71.4442 58.0017 71.356 57.3768 71.6837C56.3803 72.2069 55.3232 72.6392 54.2524 72.989C53.633 73.19 53.3962 73.5066 53.2944 74.1179C53.0163 75.7756 52.653 77.4168 52.3749 79.0745C52.2676 79.7133 52.0611 80.0107 51.3371 79.9997C48.4191 79.9584 45.5011 79.9694 42.5804 79.9942C41.983 79.9997 41.7408 79.8042 41.6416 79.2067C41.3498 77.4829 40.9617 75.7729 40.6782 74.0491C40.5818 73.4598 40.3561 73.1872 39.7807 72.9917C38.6824 72.6172 37.6005 72.1656 36.5627 71.6424C36.0094 71.3616 35.646 71.4359 35.1753 71.7636C33.5483 72.9008 31.8939 73.9968 30.2835 75.0872L30.2807 75.0817ZM49.5505 25.2024C47.9732 25.2024 46.4976 25.1721 45.0276 25.2327C44.7881 25.2409 44.411 25.6044 44.3532 25.8605C44.0173 27.3667 43.7338 28.884 43.4805 30.4067C43.3732 31.0538 43.0731 31.3265 42.4345 31.5633C40.3891 32.3233 38.3768 33.1824 36.3892 34.0883C35.88 34.3197 35.5634 34.3472 35.1147 34.0305C33.6364 32.9869 32.1306 31.9846 30.7707 31.0593C29.5044 32.3233 28.3207 33.5046 27.1039 34.7189C28.0537 36.115 29.0419 37.5992 30.0687 39.0587C30.3798 39.4992 30.3826 39.8159 30.1431 40.3336C29.2319 42.319 28.362 44.3264 27.616 46.3778C27.3627 47.0772 27.0434 47.3443 26.3662 47.4545C24.8769 47.6968 23.3931 47.9722 21.9231 48.3109C21.6533 48.3742 21.2955 48.7983 21.279 49.0736C21.2101 50.3073 21.279 51.5464 21.2349 52.78C21.2129 53.4051 21.4551 53.5868 22.0415 53.6777C23.5308 53.909 25.0035 54.2422 26.4928 54.4928C27.1039 54.5947 27.36 54.881 27.5829 55.4813C28.3455 57.5273 29.1796 59.5512 30.088 61.5338C30.355 62.1176 30.3771 62.4728 30.0082 62.9878C28.9759 64.4279 28.0069 65.9121 27.1287 67.2063C28.4033 68.484 29.5815 69.6653 30.7955 70.8852C32.1774 69.9434 33.6639 68.9576 35.1147 67.925C35.5772 67.5973 35.902 67.6524 36.4003 67.8782C38.3906 68.7786 40.3946 69.6543 42.4427 70.406C43.0979 70.6456 43.3649 70.9402 43.475 71.5708C43.7311 73.0578 44.0614 74.5337 44.2954 76.0235C44.3835 76.588 44.6037 76.7697 45.157 76.7532C46.3573 76.7201 47.5602 76.7174 48.7605 76.7532C49.3441 76.7724 49.6083 76.6072 49.7047 75.9849C49.9277 74.5282 50.269 73.0881 50.503 71.6342C50.6131 70.9513 50.8802 70.6456 51.5849 70.395C53.6082 69.6736 55.5875 68.8227 57.542 67.925C58.1173 67.6607 58.478 67.6139 59.001 67.9884C60.4435 69.021 61.93 69.9902 63.2459 70.8824C64.5204 69.6213 65.7097 68.4454 66.9237 67.2421C66.0097 65.8873 65.0765 64.4472 64.0745 63.0566C63.6615 62.4838 63.6781 62.0873 63.9891 61.4264C64.8948 59.5154 65.7014 57.5493 66.4061 55.5557C66.6539 54.8563 66.9622 54.5781 67.6449 54.468C69.1342 54.2257 70.6179 53.9503 72.088 53.6089C72.3577 53.5455 72.7211 53.1187 72.7349 52.8406C72.8064 51.607 72.7459 50.3678 72.7762 49.1342C72.7899 48.5972 72.6495 48.3467 72.0659 48.2558C70.5436 48.0162 69.0241 47.7271 67.521 47.3857C67.1631 47.3058 66.7007 47.0112 66.574 46.7C65.6298 44.3594 64.7572 41.9913 63.7662 39.3726C64.6966 37.9958 65.8473 36.2968 66.9512 34.6666C65.7124 33.433 64.5259 32.2489 63.3037 31.0318C61.6685 32.1388 59.9673 33.2898 58.6156 34.204C55.9729 33.2072 53.6027 32.3398 51.2628 31.4008C50.949 31.2741 50.6434 30.8198 50.5663 30.4646C50.1919 28.7601 49.8974 27.039 49.5478 25.1969L49.5505 25.2024Z" fill="white"/>
<path d="M55.7913 88.1529C55.9982 89.3848 56.1751 90.4214 56.3711 91.579C42.7313 94.1636 30.5587 91.2408 20.2506 81.8783C10.3726 72.9062 6.11818 61.4787 6.78778 48.0027C7.8929 48.0935 8.86192 48.176 9.89899 48.2612C9.36004 63.4557 15.117 75.4469 27.8531 83.671C35.3848 88.5351 43.7412 90.0942 52.6774 88.9503C52.5359 88.0787 52.4215 87.306 52.2827 86.5361C52.0269 85.1338 52.8679 84.2155 54.2725 84.4354C54.904 84.5344 55.5219 84.7461 56.1397 84.9276C60.6963 86.2667 65.2529 87.6085 69.8067 88.9531C71.0343 89.316 71.4072 90.7871 70.4872 91.7357C70.1824 92.0519 69.804 92.2994 69.4529 92.5661C65.4924 95.5742 61.532 98.5851 57.5688 101.59C56.4664 102.426 55.1435 101.934 54.806 100.557C54.6753 100.029 54.5964 99.4869 54.4902 98.926C35.2187 100.832 19.5974 94.3259 8.26581 78.2955C1.36835 68.537 -0.694904 56.6174 0.195179 48C1.17781 48.0742 2.16588 48.1485 3.21928 48.2255C2.63678 62.9828 7.51727 75.4551 18.5576 85.1173C29.6142 94.7961 42.5626 97.7712 56.9944 95.104C57.0761 95.4862 57.1632 95.8712 57.2421 96.2561C57.3238 96.6576 57.4027 97.0618 57.5143 97.6337C60.3561 95.4725 63.1243 93.369 66.0423 91.1528C62.5364 90.1272 59.2346 89.1621 55.7913 88.1557V88.1529Z" fill="white"/>
<path d="M42.1575 3.72752C59.8829 2.65377 74.3541 8.7623 85.2461 22.7349C93.4489 33.2572 95.6973 45.9407 94.8238 55C93.8429 54.931 92.862 54.862 91.7709 54.7875C92.3798 40.4036 87.6681 28.1009 76.991 18.4151C66.3304 8.74298 53.6419 5.36714 39.4187 7.34627C39.2699 6.3498 39.1376 5.44443 38.9723 4.34031C35.9882 6.36084 33.1116 8.30685 30.0256 10.3964C33.5001 11.6026 36.7818 12.7371 40.2012 13.9241C40.102 12.9027 40.0138 12.0001 39.9257 11.103C65.1622 6.15934 89.933 27.3722 88.0456 54.1885C87.0426 54.1195 86.0369 54.0505 84.9871 53.9759C85.3205 40.2821 80.2837 29.1443 69.3338 20.9407C61.7124 15.2297 53.022 12.9966 43.4636 13.7253C43.5435 14.4485 43.6124 15.0889 43.6895 15.7293C43.8741 17.2723 42.8133 18.1639 41.3061 17.6698C38.9916 16.9079 36.6936 16.0992 34.3901 15.307C31.6347 14.3547 28.8793 13.3968 26.124 12.4418C24.9557 12.036 24.614 10.562 25.5012 9.65664C25.763 9.38889 26.0909 9.18739 26.4023 8.97484C30.6373 6.09586 34.8723 3.21963 39.1101 0.343402C40.2205 -0.410158 41.5293 0.125338 41.8076 1.47236C41.9591 2.2066 42.039 2.9574 42.1548 3.73028L42.1575 3.72752Z" fill="white"/>
<path d="M4 31.5619C5.11832 29.3588 6.19278 27.2417 7.33029 25C8.28963 25.679 9.13111 26.275 10 26.8888C8.95569 28.9407 7.94153 30.9274 6.88351 33C5.98447 32.5523 5.07172 32.0956 4 31.5589V31.5619Z" fill="white"/>
<path d="M1.78966 36C2.99245 36.4172 3.97734 36.7559 5 37.1096C4.43056 39.4316 3.88146 41.672 3.31203 44C2.26031 43.8095 1.24056 43.6221 0 43.3953C0.595584 40.9342 1.17083 38.5548 1.78966 36.003V36Z" fill="white"/>
<path d="M92.8159 65C91.8065 64.6978 90.9159 64.4297 90 64.1537C90.3795 62.4139 90.7413 60.7398 91.1208 59C92.0595 59.1524 92.9475 59.297 94 59.4678C93.6003 61.3311 93.2182 63.1209 92.8159 65Z" fill="white"/>
<path d="M86 72.5869C86.889 71.0529 87.7377 69.5894 88.6577 68C89.6985 68.335 90.7486 68.67 92 69.0705C91.0367 70.7355 90.1167 72.3275 89.1502 74C88.0165 73.4912 87.0191 73.0453 86 72.5869Z" fill="white"/>
<path d="M8.27733 38.0027C9.29524 38.3726 10.1353 38.6805 11 38.9937C10.6022 40.6733 10.2193 42.2853 9.81161 44C8.92959 43.8245 8.04262 43.6463 7 43.4383C7.43237 41.6022 7.84002 39.8632 8.27733 38V38.0027Z" fill="white"/>
<path d="M12.5292 29C13.4475 29.7015 14.2111 30.2881 15 30.8929C14.2187 32.6043 13.4678 34.2492 12.6662 36C11.8265 35.5404 10.9792 35.0747 10 34.5395C10.8447 32.689 11.6514 30.9171 12.5266 29H12.5292Z" fill="white"/>
<path d="M87.0253 63C85.9822 62.6969 85.0404 62.4249 84 62.1246C84.2902 60.762 84.5695 59.4391 84.8761 58C85.8946 58.17 86.883 58.3343 88 58.5213C87.666 60.0538 87.3566 61.4816 87.0253 63Z" fill="white"/>
<path d="M81.0023 69.5436C81.5085 68.3396 81.9748 67.2198 82.488 66C83.2917 66.3575 84.0885 66.7124 85 67.1172C84.447 68.4343 83.9244 69.683 83.3691 71C82.5208 70.4795 81.7686 70.0142 81 69.5436H81.0023Z" fill="white"/>
<path d="M17.7723 28C16.8246 27.2465 15.9662 26.5631 15 25.7974C15.7908 24.8822 16.5446 24.0067 17.4123 23C18.2985 23.8298 19.1138 24.5894 20 25.4192C19.2615 26.2764 18.5508 27.097 17.7723 28Z" fill="white"/>
<path d="M12.4064 19.0024C13.318 19.6838 14.116 20.2819 15 20.9412C14.2541 21.6275 13.5451 22.2794 12.7655 23C11.8539 22.4118 10.9822 21.848 10 21.2132C10.8011 20.4779 11.5592 19.7819 12.4095 19L12.4064 19.0024Z" fill="white"/>
<path d="M82.0031 78.8019C82.7288 77.808 83.3589 76.9474 84.0506 76C85.0358 76.6718 85.9685 77.3065 87 78.0093C86.2588 79.0248 85.5855 79.9443 84.8135 81C83.8653 80.2601 82.979 79.5666 82 78.8019H82.0031Z" fill="white"/>
<path d="M79.5265 77C78.6295 76.2683 77.8496 75.632 77 74.9378C77.468 74.2813 77.8914 73.6855 78.3788 73C79.2479 73.6247 80.0836 74.2263 81 74.8858C80.5014 75.6001 80.0446 76.2567 79.5265 77Z" fill="white"/>
<path d="M47.0285 61.9973C40.9575 62.0109 36.0027 57.0724 36 51.0068C36 44.9494 40.9684 39.9864 47.0231 40C53.0424 40.0136 57.9754 44.9358 57.9999 50.9524C58.0244 57.0234 53.0968 61.9864 47.0285 62V61.9973ZM47.0013 58.8148C51.3381 58.8148 54.8256 55.3219 54.8228 50.985C54.8201 46.6428 51.3354 43.1635 46.9959 43.1635C42.6536 43.1635 39.1771 46.6455 39.1771 50.9905C39.1771 55.3273 42.6672 58.8148 47.004 58.8148H47.0013Z" fill="white"/>
</svg>
