<svg width="123" height="118" viewBox="0 0 123 118" fill="none" xmlns="http://www.w3.org/2000/svg">
<path d="M97.6836 118C97.0926 118 96.5015 117.821 95.9813 117.461C89.0593 112.667 75.3438 103.149 67.8866 97.9398C67.4308 97.6217 67.0336 97.5341 66.1862 97.5648C64.1977 97.6385 62.1868 97.6301 60.2421 97.6217C58.8689 97.6161 57.449 97.6096 56.0599 97.6329C55.509 97.6422 54.9748 97.771 54.7016 97.9603C47.4887 102.955 34.0352 112.124 26.6573 117.146C25.5992 117.866 24.2474 117.843 23.2145 117.089C22.1806 116.333 21.748 115.053 22.1116 113.825C24.7061 105.062 29.3711 89.3212 31.4752 82.3376C31.63 81.8246 31.5824 81.5224 31.2655 80.9918C28.8006 76.8611 27.2428 72.4366 26.6359 67.8405C26.5855 67.4628 26.2434 66.8976 25.9162 66.6551C19.3064 61.7494 7.59252 52.9415 1.19813 48.1272C0.153992 47.341 -0.253407 46.0325 0.160518 44.7921C0.574443 43.5526 1.6857 42.7496 2.9918 42.7487C10.1907 42.7403 27.432 42.7235 32.0318 42.7468C32.0393 42.7468 32.0476 42.7468 32.0551 42.7468C32.7142 42.7468 32.9268 42.6088 33.2204 42.2031C36.8395 37.2032 41.6751 33.3831 47.5931 30.85C48.1105 30.628 48.3166 30.4042 48.5114 29.8493C51.1823 22.2445 55.9928 8.72582 58.4027 1.9828C58.8334 0.777825 59.9372 0 61.2163 0H61.2247C62.5075 0.00373058 63.6103 0.788084 64.0355 1.99866C65.5541 6.32146 67.9407 13.1745 70.2481 19.8019C71.5542 23.553 72.7997 27.1306 73.7711 29.9118C73.868 30.1888 74.2326 30.5879 74.4936 30.7036C80.6046 33.3933 85.5437 37.303 89.1739 42.3243C89.3958 42.6312 89.5403 42.7394 90.2852 42.7394H90.2908C96.1062 42.7356 106.106 42.7431 120.01 42.7617C121.321 42.7636 122.433 43.5694 122.844 44.8136C123.256 46.0586 122.842 47.3681 121.79 48.1506C115.324 52.9593 102.914 62.1085 96.2526 66.9769C95.8993 67.2353 95.7268 67.4572 95.6345 68.0923C94.9456 72.833 93.399 77.1679 91.0385 80.974C90.7243 81.4814 90.6879 81.8059 90.8772 82.4196C93.5295 91.0065 98.1954 106.359 100.544 114.14C100.917 115.375 100.484 116.663 99.4419 117.422C98.9114 117.809 98.298 118.002 97.6846 118.002L97.6836 118ZM66.4817 94.7613C67.4289 94.7613 68.4385 94.9124 69.4883 95.6455C76.9426 100.851 90.6544 110.367 97.5746 115.16C97.6137 115.187 97.6864 115.238 97.7964 115.157C97.9064 115.077 97.8813 114.992 97.8673 114.947C95.5786 107.365 90.8222 91.7125 88.2062 83.2441C87.7774 81.8544 87.9182 80.6989 88.6631 79.4977C90.8194 76.0198 92.2346 72.0458 92.8676 67.6876C93.0596 66.3698 93.5947 65.453 94.6034 64.7162C101.259 59.8515 113.661 50.7097 120.121 45.9038C120.16 45.8749 120.232 45.8208 120.189 45.6902C120.147 45.5597 120.056 45.5587 120.008 45.5587C106.104 45.5401 96.1062 45.5326 90.2927 45.5364H90.2861C89.1767 45.5364 87.9098 45.348 86.9085 43.963C83.5272 39.2848 79.098 35.7856 73.3683 33.2637C72.4025 32.8384 71.4824 31.8395 71.1318 30.8341C70.1604 28.0521 68.9149 24.4744 67.6088 20.7224C65.3015 14.0969 62.9158 7.24571 61.399 2.92664C61.3832 2.88187 61.3543 2.79887 61.2191 2.79793C61.0848 2.79793 61.055 2.88094 61.0392 2.9257C58.6302 9.66499 53.8225 23.1771 51.1525 30.7773C50.6966 32.0746 49.9387 32.8906 48.696 33.4232C43.2497 35.7548 38.8066 39.2606 35.4886 43.8455C34.6384 45.0206 33.5775 45.5457 32.0532 45.5457C32.0421 45.5457 32.0318 45.5457 32.0206 45.5457C27.4283 45.5233 10.1935 45.5401 2.9974 45.5475C2.94892 45.5475 2.85942 45.5475 2.8156 45.679C2.77179 45.8096 2.84357 45.8637 2.88273 45.8926C9.27432 50.7041 20.9826 59.5092 27.5858 64.4093C28.5284 65.1088 29.262 66.3399 29.4121 67.4749C29.9696 71.6914 31.4025 75.7568 33.6707 79.5583C34.3904 80.7651 34.5405 81.8712 34.1564 83.1452C32.0542 90.1233 27.3901 105.86 24.7965 114.619C24.7835 114.665 24.7583 114.749 24.8674 114.829C24.9764 114.908 25.0491 114.859 25.0883 114.833C32.4625 109.814 45.9085 100.65 53.114 95.6604C54.1134 94.9684 55.3617 94.8471 56.0171 94.8359C57.435 94.8117 58.8707 94.8182 60.2579 94.8238C62.1737 94.8322 64.1557 94.8406 66.0874 94.7688C66.2188 94.7641 66.3512 94.7613 66.4854 94.7613H66.4817ZM61.344 92.8177C61.2974 92.8177 61.2527 92.8177 61.206 92.8177C53.2156 92.7822 45.7659 89.6066 40.2301 83.8764C37.5955 81.1494 35.5259 77.9886 34.079 74.481C32.6014 70.8987 31.8472 67.1327 31.8388 63.2864C31.8304 59.2686 32.6471 55.3487 34.2664 51.6349C35.8364 48.0358 38.0738 44.8182 40.9181 42.0706C43.742 39.3427 47.0058 37.233 50.6174 35.8023C54.3959 34.3055 58.3859 33.6246 62.4767 33.7748C66.2216 33.9137 69.8789 34.7774 73.3478 36.3414C76.7394 37.8709 79.787 39.9936 82.4066 42.6517C87.9051 48.2308 90.8996 55.5725 90.838 63.3265C90.893 71.06 87.7532 78.6788 82.2211 84.2299C76.7003 89.7707 69.2897 92.8167 61.3431 92.8167L61.344 92.8177ZM61.3683 36.5531C54.449 36.5531 47.911 39.2056 42.8619 44.0833C37.6189 49.1485 34.6207 56.1461 34.6365 63.2808C34.6682 77.9597 46.5928 89.9554 61.2191 90.0198C61.261 90.0198 61.303 90.0198 61.344 90.0198C68.543 90.0198 75.2487 87.2656 80.2419 82.2555C85.2528 77.2276 88.0953 70.3316 88.0431 63.3368V63.3256V63.3144C88.1596 49.0963 76.6452 37.0997 62.3751 36.5708C62.0395 36.5587 61.7029 36.5522 61.3692 36.5522L61.3683 36.5531Z" fill="white"/>
<path d="M73.7657 71.9571C75.661 71.6372 77.5404 71.3192 79.5466 70.9806C80.1349 70.8808 80.5488 71.544 80.202 72.0299C78.674 74.1712 77.2132 76.2184 75.6908 78.3504C75.3459 78.8335 74.5898 78.6628 74.4872 78.0781C74.4276 77.7395 74.3688 77.4047 74.3082 77.0605C74.2253 76.5905 73.692 76.3564 73.2893 76.6119C72.6488 77.0195 72.0578 77.3935 71.5012 77.8132C68.9309 79.7512 66.356 81.6846 63.8427 83.6944C62.1562 85.043 60.5816 84.9927 58.9212 83.7038C56.379 81.7303 53.8199 79.7801 51.2496 77.843C50.6949 77.4252 50.1113 77.0456 49.4494 76.611C49.0495 76.348 48.5107 76.5784 48.424 77.0494C48.3634 77.3804 48.3037 77.705 48.2431 78.037C48.1368 78.6171 47.3863 78.7859 47.0423 78.3075C45.5367 76.2165 44.0684 74.1777 42.5218 72.0299C42.1722 71.5449 42.5861 70.879 43.1762 70.9778C45.203 71.3201 47.0927 71.6391 48.9656 71.9552C49.3208 72.0149 49.5641 72.346 49.5175 72.7032C49.3366 74.0929 49.51 74.2132 51.0371 75.0983C51.9526 75.6289 52.882 76.1624 53.8628 76.5457C57.4753 77.9568 60.0148 76.3303 60.0772 72.4523C60.1658 66.9572 60.095 61.4593 60.1164 55.9632C60.1192 55.2217 59.8432 54.9587 59.1161 54.9727C57.7531 54.9998 56.3855 54.9074 55.0253 54.9727C53.9821 55.0231 53.5551 54.65 53.6773 53.6092C53.7034 53.3863 53.7034 53.1606 53.6978 52.9069C53.6894 52.532 53.9914 52.2233 54.3662 52.2233C55.8998 52.2224 57.3746 52.2177 58.8495 52.227C59.5216 52.2308 60.1509 52.2923 60.108 51.2785C60.0726 50.4475 60.2003 49.7201 58.9371 49.735C57.7158 49.749 56.8218 49.0113 56.2671 47.9089C54.7922 44.9739 56.653 41.6583 60.0288 41.3477C61.1428 41.2451 62.3109 41.317 63.4091 41.5361C66.26 42.105 67.7041 44.9934 66.563 47.6785C66.0335 48.9245 65.1516 49.7574 63.7401 49.7947C62.5412 49.8264 62.6055 50.5949 62.6167 51.4352C62.6298 52.4462 63.3532 52.2056 63.9098 52.2149C65.2737 52.2373 66.6413 52.283 68.0005 52.2046C69.0447 52.145 69.0661 52.7288 69.0475 53.4768C69.0288 54.2443 69.1715 55.0259 67.953 54.9727C66.5164 54.9102 65.0732 55.0026 63.6348 54.9662C62.833 54.9457 62.5878 55.273 62.5916 56.0425C62.6167 61.5768 62.5627 67.112 62.6335 72.6454C62.6792 76.251 65.201 77.9102 68.5767 76.6269C69.6674 76.2128 70.7069 75.6457 71.7296 75.0768C73.2473 74.2318 73.4189 74.1115 73.2156 72.7116C73.1634 72.3516 73.4077 72.0149 73.7666 71.9543L73.7657 71.9571ZM61.4048 43.0246C61.3237 43.0181 61.2407 43.0284 61.1624 43.0526C60.4175 43.2764 59.6298 43.4201 58.9539 43.7754C57.7373 44.4152 57.4016 46.1779 58.2043 47.2159C58.6388 47.7783 59.145 48.0842 59.8498 47.6132C60.7541 47.0089 61.6658 47.049 62.6307 47.5321C63.8688 48.1523 64.8327 47.5349 64.9176 46.1257C65.0257 44.3294 63.6982 43.2018 61.4039 43.0246H61.4048Z" fill="white"/>
<path d="M41.6772 61.5906C41.6772 59.8466 41.694 58.1016 41.6688 56.3576C41.6586 55.6926 41.8758 55.3829 42.5815 55.4109C43.565 55.4492 44.5532 55.3913 45.5368 55.4305C46.745 55.479 47.3621 56.0731 47.3966 57.2641C47.4395 58.7796 47.4432 60.298 47.405 61.8135C47.3696 63.2069 46.8736 63.7506 45.4538 63.7627C44.4488 63.7711 44.1906 64.1227 44.1813 65.102C44.1766 65.6299 44.1318 66.1699 44.199 66.6922C44.3435 67.802 43.8084 68.0277 42.8211 68.0165C41.9298 68.0063 41.625 67.7134 41.652 66.8237C41.7061 65.0815 41.6679 63.3356 41.6679 61.5916H41.6763L41.6772 61.5906ZM44.2931 62.2425C45.1471 61.308 45.0175 57.4376 44.2931 56.9918V62.2425Z" fill="white"/>
<path d="M78.2311 56.9564C77.6541 58.043 77.778 65.8604 78.6292 66.7287C78.6767 65.9042 78.7849 65.3017 78.728 64.7151C78.6236 63.6388 79.2314 63.5801 80.0472 63.5894C80.8107 63.5978 81.4185 63.6342 81.2992 64.6563C81.2423 65.1423 81.3188 65.6421 81.2778 66.1318C81.1715 67.3974 80.5711 67.9551 79.3135 67.9868C78.7084 68.0027 78.1025 68.0027 77.4965 67.998C76.0879 67.9859 75.4418 67.4795 75.4064 66.0432C75.3355 63.1678 75.3383 60.2878 75.4082 57.4116C75.4418 56.0434 76.1568 55.4717 77.5273 55.4185C77.792 55.4082 78.0568 55.4157 78.3225 55.4157C80.8517 55.4157 81.3356 55.9762 81.3132 58.5056C81.3039 59.5809 80.6998 59.5063 79.9903 59.5231C79.2324 59.5417 78.6264 59.496 78.7289 58.4599C78.7793 57.9553 78.6506 57.433 78.6022 56.9191C78.4782 56.9322 78.3551 56.9443 78.2311 56.9574V56.9564Z" fill="white"/>
</svg>
