<svg width="99" height="94" viewBox="0 0 99 94" fill="none" xmlns="http://www.w3.org/2000/svg">
<path d="M0.00587833 55.0951C0.552563 53.3506 1.78701 52.264 3.27423 51.2478C8.42953 47.7265 13.482 44.0555 18.6167 40.499C19.3809 39.9704 20.3567 39.7472 21.4589 39.292C21.4589 39.1657 21.4589 38.7956 21.4589 38.4256C21.4589 31.3096 21.4824 24.1966 21.4442 17.0806C21.4324 14.8046 22.3759 13.2598 24.2746 11.9794C29.474 8.46397 34.5764 4.8076 39.6935 1.1718C40.731 0.431715 41.8038 0 43.0823 0C53.39 0.00881051 63.7006 0 74.0082 0.00881051C77.0561 0.00881051 79.1753 2.0088 79.187 5.04842C79.2282 15.4155 79.2282 25.7825 79.1635 36.1495C79.1576 37.2508 78.6257 38.3463 78.3024 39.5768C78.4405 39.5768 78.7638 39.5768 79.0871 39.5768C83.8868 39.5768 88.6864 39.5709 93.4861 39.5768C97.0101 39.5827 98.9853 41.5621 98.9853 45.0863C98.9853 55.1626 98.9706 65.2418 99 75.3181C99.0058 77.0744 98.4062 78.4752 97.163 79.7058C93.0158 83.8027 88.8863 87.9172 84.7979 92.0699C83.49 93.3973 82.0116 93.9817 80.1452 93.9759C69.1292 93.9377 58.1103 93.9465 47.0943 93.97C45.5688 93.9729 44.1404 93.7938 42.8913 92.6837C41.5863 93.8936 40.0079 93.9729 38.3649 93.97C27.6693 93.9465 16.9737 93.8907 6.281 93.9994C3.19487 94.0287 1.05222 93.0478 0 90.0699V55.098L0.00587833 55.0951ZM63.5183 90.6631C69.1233 90.6631 74.7313 90.6631 80.3363 90.6631C81.9322 90.6631 82.5054 90.1051 82.5083 88.5222C82.5142 77.8644 82.5142 67.2037 82.5083 56.5459C82.5083 54.9717 81.9263 54.3902 80.3392 54.3902C69.1263 54.3844 57.9133 54.3844 46.7004 54.3902C45.1133 54.3902 44.5372 54.9629 44.5372 56.5459C44.5313 67.2037 44.5313 77.8644 44.5372 88.5222C44.5372 90.1257 45.0898 90.6602 46.6975 90.6631C52.3025 90.6661 57.9104 90.6631 63.5154 90.6631H63.5183ZM22.3377 90.6631C27.9133 90.6631 33.4859 90.6631 39.0615 90.6631C40.731 90.6631 41.2365 90.158 41.2365 88.4664C41.2365 77.838 41.2395 67.2125 41.2365 56.584C41.2365 54.9071 40.7192 54.3873 39.038 54.3873C27.8574 54.3844 16.6768 54.3844 5.49624 54.3873C3.85031 54.3873 3.30656 54.9482 3.30656 56.6046C3.30656 67.233 3.30656 77.8585 3.30656 88.4869C3.30656 90.1345 3.84443 90.6602 5.5227 90.6602C11.1306 90.6602 16.7356 90.6602 22.3435 90.6602L22.3377 90.6631ZM43.7319 51.0863C49.3045 51.0863 54.8801 51.0863 60.4528 51.0863C62.2045 51.0863 62.6807 50.6076 62.6807 48.8484C62.6807 38.2552 62.6807 27.6591 62.6807 17.066C62.6807 15.3215 62.1987 14.8428 60.4352 14.8428C49.2869 14.8428 38.1386 14.8428 26.9904 14.8428C25.2474 14.8428 24.7537 15.345 24.7507 17.0836C24.7507 27.6768 24.7507 38.2729 24.7507 48.866C24.7507 50.59 25.2533 51.0863 27.008 51.0863C32.5807 51.0892 38.1563 51.0863 43.7289 51.0863H43.7319ZM75.901 5.60349C75.7041 5.65341 75.6306 5.65048 75.5895 5.68572C72.3623 8.49627 69.1321 11.3039 65.9226 14.135C65.7639 14.276 65.708 14.6166 65.7257 14.8545C65.7815 15.6504 65.9667 16.4434 65.9696 17.2392C65.9872 26.6988 65.9814 36.1583 65.9814 45.6179C65.9814 45.941 65.9814 46.2669 65.9814 46.59L66.2547 46.681C66.4604 46.4402 66.6544 46.1847 66.8778 45.9586C69.5348 43.2919 72.1771 40.6077 74.8723 37.9792C75.6277 37.242 75.9216 36.4579 75.9187 35.4183C75.8922 25.8295 75.904 16.2407 75.904 6.65194V5.60349H75.901ZM85.809 86.3225C89.0714 83.0714 92.1693 80.0259 95.2026 76.9187C95.5494 76.5634 95.6787 75.8644 95.6787 75.327C95.7052 65.5091 95.6993 55.6913 95.6963 45.8734C95.6963 45.6385 95.6522 45.4035 95.617 45.0364C92.5044 47.7559 89.5153 50.3961 86.4879 52.9923C85.7561 53.6208 85.227 54.167 85.6708 55.2302C85.8707 55.7059 85.8031 56.308 85.806 56.8513C85.8119 66.2521 85.8119 75.65 85.8119 85.0508V86.3225H85.809ZM92.9923 42.9454C92.619 42.9043 92.4721 42.8749 92.3222 42.8749C86.6261 42.8749 80.927 42.8631 75.2309 42.8955C74.8429 42.8955 74.3727 43.1421 74.0846 43.4211C72.3505 45.0981 70.6605 46.822 68.9499 48.5254C68.1622 49.3095 67.3657 50.0848 66.5721 50.8631L66.6662 51.0834H67.6773C71.8303 51.0834 75.9804 51.0628 80.1334 51.101C80.9564 51.1068 81.7764 51.3477 82.6023 51.4328C82.8757 51.4622 83.2431 51.4328 83.4312 51.2742C86.5732 48.5635 89.6946 45.8294 92.9923 42.9483V42.9454ZM49.6308 11.3274C49.6484 11.3979 49.666 11.4684 49.6837 11.5359C50.0217 11.5359 50.3568 11.5359 50.6948 11.5359C53.9455 11.5359 57.1933 11.5183 60.444 11.5476C61.1729 11.5535 61.9018 11.762 62.6337 11.7973C63.0216 11.8149 63.5242 11.7855 63.7887 11.5565C66.7455 9.0249 69.6641 6.45223 72.6004 3.89718C72.7591 3.75915 72.9883 3.70042 73.1853 3.6035C73.1177 3.51246 73.0471 3.42142 72.9795 3.33037C72.862 3.31863 72.7444 3.29807 72.6268 3.29807C68.5737 3.29807 64.5177 3.28338 60.4645 3.31569C60.0913 3.31569 59.668 3.53008 59.3594 3.76796C57.0081 5.56531 54.6803 7.38908 52.3466 9.20699C51.4384 9.91183 50.5331 10.6196 49.6278 11.3274H49.6308ZM30.9024 11.4331C31.2669 11.486 31.4461 11.533 31.6254 11.533C35.5492 11.5359 39.476 11.5476 43.3997 11.5183C43.776 11.5153 44.2139 11.3274 44.5196 11.0924C47.6321 8.70479 50.7212 6.28777 53.825 3.88837C54.0131 3.74447 54.2394 3.65049 54.4481 3.53302C54.3834 3.45666 54.3158 3.37736 54.2511 3.30101C50.489 3.30101 46.7269 3.2922 42.9647 3.31569C42.6062 3.31569 42.1976 3.46253 41.9008 3.66811C39.0527 5.65341 36.2223 7.66515 33.3889 9.66807C32.6101 10.2202 31.8312 10.7753 30.9024 11.4331ZM21.4882 51.0276V42.9513C21.3913 42.8837 21.2913 42.8191 21.1943 42.7515C17.3293 45.4652 13.4643 48.1759 9.4024 51.0276H21.4882Z" fill="white"/>
<path d="M54.4512 77.0086C55.5228 77.0086 56.5943 76.9938 57.6658 77.0116C59.5439 77.0442 60.8747 78.3503 60.9611 80.2975C61.013 81.4314 61.013 82.5713 60.9611 83.7052C60.8689 85.6464 59.5353 86.9614 57.6543 86.9822C55.5429 87.0059 53.4315 87.0059 51.323 86.9822C49.4709 86.9614 48.1574 85.6969 48.0508 83.7883C47.9845 82.592 47.9816 81.3839 48.0508 80.1847C48.1602 78.2761 49.4737 77.0383 51.3345 77.0086C52.3744 76.9908 53.4142 77.0056 54.4541 77.0086H54.4512ZM51.2913 83.6013H57.6687V80.4133H51.2913V83.6013Z" fill="white"/>
<path d="M74.9986 86.9948C74.2469 86.9948 73.4953 87.0081 72.7436 86.9921C71.6919 86.9681 71.0145 86.3898 71.0002 85.529C70.9859 84.6709 71.6661 84.034 72.6922 84.018C74.2269 83.994 75.7617 83.994 77.2964 84.018C78.3196 84.034 79.0141 84.6736 78.9998 85.5237C78.9884 86.3738 78.2939 86.9575 77.2535 86.9948C77.2221 86.9948 77.1907 86.9948 77.1592 86.9948C76.439 86.9948 75.7188 86.9948 74.9986 86.9948Z" fill="white"/>
<path d="M75.0397 77.0125C75.8233 77.0125 76.607 76.9841 77.3906 77.0196C78.3144 77.0621 78.9579 77.8383 78.998 78.891C79.0409 79.9863 78.3974 80.922 77.4478 80.9575C75.8205 81.0142 74.1874 81.0142 72.56 80.9575C71.6105 80.9256 70.967 80.0005 71.0013 78.9017C71.0356 77.8383 71.6677 77.0621 72.5972 77.0196C73.4095 76.9806 74.2274 77.0125 75.0425 77.0089L75.0397 77.0125Z" fill="white"/>
<path d="M13.4796 78.0069C14.5852 78.0069 15.6908 77.9882 16.7936 78.0123C18.5862 78.0523 19.891 79.2222 19.9632 80.8836C20.0123 81.9627 20.0123 83.0472 19.9632 84.1263C19.8853 85.7743 18.5631 86.9576 16.7705 86.979C14.591 87.0057 12.4144 87.0083 10.2349 86.979C8.47115 86.9549 7.12305 85.7423 7.04223 84.1049C6.98738 83.0258 6.98449 81.9414 7.04223 80.8623C7.12883 79.2303 8.48559 78.0497 10.258 78.0149C11.3319 77.9936 12.4058 78.0123 13.4796 78.0123V78.0069ZM16.6897 81.0519H10.3273V83.9286H16.6897V81.0519Z" fill="white"/>
<path d="M33.9155 86.9894C33.1291 86.9894 32.3426 87.016 31.559 86.9814C30.6233 86.9415 30.0177 86.3534 30.0005 85.5391C29.9804 84.6876 30.6004 84.0462 31.5791 84.025C33.1808 83.9904 34.7852 83.993 36.3897 84.025C37.3714 84.0436 38.0057 84.6716 38 85.5152C37.9942 86.3614 37.3599 86.9548 36.3696 86.9868C35.5545 87.0134 34.7336 86.9921 33.9184 86.9894H33.9155Z" fill="white"/>
<path d="M34.0131 78.0081C34.7996 78.0081 35.586 77.9868 36.3696 78.0134C37.3656 78.0453 37.9942 78.6303 38 79.4786C38.0029 80.3189 37.3714 80.9518 36.3926 80.9731C34.7909 81.0076 33.1864 81.0103 31.5819 80.9731C30.6031 80.9491 29.9831 80.3029 30.0003 79.4573C30.0176 78.6117 30.649 78.0453 31.6537 78.016C32.4401 77.9948 33.2266 78.0107 34.0102 78.0134L34.0131 78.0081Z" fill="white"/>
<path d="M34.4592 47.991C33.3841 47.991 32.309 48.0147 31.2339 47.9851C29.4074 47.9347 28.0809 46.5886 28.026 44.7148C27.9913 43.5792 27.9913 42.4437 28.026 41.3081C28.0838 39.4491 29.4248 38.0615 31.2426 38.0289C33.4217 37.9904 35.6036 37.9904 37.7856 38.0289C39.5774 38.0615 40.901 39.4017 40.9675 41.2192C41.0108 42.417 41.0108 43.6207 40.9675 44.8186C40.901 46.6123 39.615 47.9199 37.8723 47.9792C36.7365 48.0177 35.5978 47.9851 34.4592 47.9881V47.991ZM31.3033 44.5962H37.6902V41.403H31.3033V44.5962Z" fill="white"/>
<path d="M55.0189 40.9931C54.233 40.9931 53.4472 41.0117 52.6641 40.9878C51.6603 40.9585 51.0235 40.3947 51.0006 39.5517C50.9776 38.6715 51.6259 38.0412 52.667 38.0226C54.2359 37.9934 55.8106 37.9907 57.3795 38.0253C58.3604 38.0465 59 38.6768 59 39.5118C59 40.3575 58.3661 40.9506 57.3766 40.9851C56.5936 41.0117 55.8048 40.9904 55.0218 40.9904L55.0189 40.9931Z" fill="white"/>
<path d="M54.9348 47.9908C54.1486 47.9908 53.3624 48.0147 52.5791 47.9855C51.6351 47.9482 51.0268 47.3817 51.001 46.5679C50.9723 45.7594 51.549 45.0785 52.4701 45.0439C54.1314 44.9854 55.8013 44.9881 57.4654 45.0359C58.4295 45.0652 59.0435 45.762 58.9976 46.5971C58.9546 47.4057 58.3463 47.9535 57.3879 47.9855C56.5731 48.0121 55.7554 47.9908 54.9376 47.9908H54.9348Z" fill="white"/>
</svg>
