<svg width="194" height="40" viewBox="0 0 194 40" fill="none" xmlns="http://www.w3.org/2000/svg">
<g clip-path="url(#clip0_2_1876)">
<path d="M67.8121 29.4514H66.2217V38.1964L56.8144 29.4514H55.3213V40.4112H56.9117V31.7136L66.2692 40.4112H67.8121V29.4514Z" fill="white"/>
<path d="M53.173 29.4514H51.5825V40.4705H53.173V29.4514Z" fill="white"/>
<path d="M72.9156 31.0348H84.9649V29.4443H72.9156C71.3489 29.4443 70.0742 30.7689 70.0742 32.3973V37.4487C70.0742 39.0771 71.3489 40.4017 72.9156 40.4017H84.9649V38.8113H72.9156C72.2249 38.8113 71.6646 38.2012 71.6646 37.4487V35.5829H84.9649V33.9925H71.6646V32.3973C71.6646 31.6472 72.2272 31.0348 72.9156 31.0348Z" fill="white"/>
<path d="M15.5579 40.4112V29.4514H13.8108L7.79093 38.5762L1.77103 29.4514H0.0239258V40.4112H1.61198V32.1006L7.09542 40.4112H8.48645L13.9675 32.1006V40.4112H15.5579Z" fill="white"/>
<path d="M29.8029 29.4539H21.8958L17.7251 40.4112H19.4461L20.1962 38.4695H31.531L32.2693 40.4112H33.9713L29.8005 29.4539H29.8029ZM20.773 36.879L22.9949 31.0443H28.7086L30.9304 36.879H20.7754H20.773Z" fill="white"/>
<path d="M46.4624 35.5735C48.1501 35.5735 49.5222 34.2014 49.5222 32.5137C49.5222 30.8259 48.1501 29.4539 46.4624 29.4539H37.442H35.8516V40.4729H37.442V35.5758H42.3035L46.6 40.4136H48.7269L44.4304 35.5758H46.4624V35.5735ZM37.442 31.0443H46.4624C47.2718 31.0443 47.9317 31.7042 47.9317 32.5137C47.9317 33.3231 47.2718 33.983 46.4624 33.983H37.442V31.0443Z" fill="white"/>
<path d="M157.541 22.069H163.437L154.906 0.0166016H138.316L130.01 22.0714H135.887L137.022 19.0614H156.375L157.541 22.0714V22.069ZM138.731 14.5157L142.128 5.49529H151.129L154.619 14.5157H138.731Z" fill="white"/>
<path d="M22.8618 5.54979H28.9031L31.6543 0.0473633H25.5347L22.8618 5.54979Z" fill="#FF0041"/>
<path d="M5.50242 15.7143V13.801H25.4659L28.2171 8.29862H5.50242V6.41384C5.50242 5.93671 5.89172 5.54741 6.36885 5.54741H19.8329L22.5058 0.0473633H6.36885C2.85803 0.0473633 0 2.90302 0 6.41622V15.7143C0 19.2251 2.85803 22.0832 6.36885 22.0832H28.9031L31.6544 16.5807H6.36885C5.89172 16.5807 5.50242 16.1914 5.50242 15.7143Z" fill="white"/>
<path d="M55.6531 0.0119629V14.352L40.1761 0.0119629H34.8398V22.0976H40.1761V8.11605L55.6531 22.0976H60.9894V0.0119629H55.6531Z" fill="white"/>
<path d="M122.876 0L112.223 16.5215L101.569 0H96.2354V22.0857H101.569V9.80846L109.557 22.0857H114.891L122.876 9.80846V22.0857H128.21V0H122.876Z" fill="white"/>
<path d="M92.6725 12.3981C92.6512 12.3388 92.6274 12.2818 92.6037 12.2249C92.6013 12.2177 92.599 12.213 92.5966 12.2059C92.3853 11.6836 92.1028 11.1923 91.7586 10.7436C90.4649 9.00126 88.3926 7.87134 86.0544 7.87134H71.121C71.121 7.87134 71.1186 7.87134 71.1162 7.87134C71.1139 7.87134 71.1139 7.87134 71.1115 7.87134C70.4255 7.87134 69.8676 7.31588 69.8676 6.62748C69.8676 5.93909 70.4231 5.38362 71.1115 5.38362C71.1139 5.38362 71.1186 5.38362 71.121 5.38362C71.1234 5.38362 71.1281 5.38362 71.1305 5.38362H88.1552L90.7498 0.0473633H71.0711C67.3918 0.0473633 64.3818 3.05732 64.3818 6.73668V6.79365C64.3818 10.3353 67.2517 13.2052 70.7934 13.2052L73.8034 13.2242H85.2284C86.204 13.2242 86.9945 14.0147 86.9945 14.9903C86.9945 15.9659 86.204 16.7564 85.2284 16.7564H67.0025L64.4222 22.0689H86.0544C89.9759 22.0689 93.1544 18.8904 93.1544 14.9689C93.1544 14.0622 92.9811 13.1934 92.6725 12.3958V12.3981Z" fill="white"/>
<path d="M192.575 12.3981C192.554 12.3388 192.53 12.2818 192.507 12.2249C192.504 12.2177 192.502 12.213 192.499 12.2059C192.288 11.6836 192.006 11.1923 191.661 10.7436C190.368 9.00126 188.295 7.87134 185.957 7.87134H171.024C171.024 7.87134 171.021 7.87134 171.019 7.87134C171.017 7.87134 171.017 7.87134 171.014 7.87134C170.328 7.87134 169.77 7.31588 169.77 6.62748C169.77 5.93909 170.326 5.38362 171.014 5.38362C171.017 5.38362 171.021 5.38362 171.024 5.38362C171.026 5.38362 171.031 5.38362 171.033 5.38362H188.058L190.653 0.0473633H170.974C167.295 0.0473633 164.285 3.05732 164.285 6.73668V6.79365C164.285 10.3353 167.155 13.2052 170.696 13.2052L173.706 13.2242H185.131C186.107 13.2242 186.897 14.0147 186.897 14.9903C186.897 15.9659 186.107 16.7564 185.131 16.7564H166.905L164.325 22.0689H185.957C189.879 22.0689 193.057 18.8904 193.057 14.9689C193.057 14.0622 192.884 13.1934 192.575 12.3958V12.3981Z" fill="white"/>
</g>
<defs>
<clipPath id="clip0_2_1876">
<rect width="193.333" height="40" fill="white"/>
</clipPath>
</defs>
</svg>
